<svg id="Layer_1" data-name="Layer 1" xmlns="http://www.w3.org/2000/svg" viewBox="0 0 250 100"><defs><style>.cls-1{fill:#231f20;}</style></defs><title>logo_border</title><path class="cls-1" d="M92.55,79.94V71h2.91a10.32,10.32,0,0,1,2.15.14A2.29,2.29,0,0,1,98.9,72a2.75,2.75,0,0,1,.52,1.74,2.92,2.92,0,0,1-.3,1.39,2.47,2.47,0,0,1-.76.89,2.7,2.7,0,0,1-.94.42,9.93,9.93,0,0,1-1.88.13H94.36v3.39Zm1.81-7.46V75h1a4.9,4.9,0,0,0,1.44-.14,1.18,1.18,0,0,0,.56-.44,1.2,1.2,0,0,0,.21-.7,1.16,1.16,0,0,0-.29-.81,1.32,1.32,0,0,0-.73-.4,8.88,8.88,0,0,0-1.3-.06Z"/><path class="cls-1" d="M102,75.5a5.77,5.77,0,0,1,.41-2.3A4.2,4.2,0,0,1,103.2,72a3.41,3.41,0,0,1,1.16-.8,4.82,4.82,0,0,1,1.93-.36A4.2,4.2,0,0,1,109.46,72a5.5,5.5,0,0,1,0,6.82,4.18,4.18,0,0,1-3.16,1.23,4.24,4.24,0,0,1-3.18-1.22A4.65,4.65,0,0,1,102,75.5Zm1.87-.06a3.34,3.34,0,0,0,.7,2.31,2.42,2.42,0,0,0,3.57,0,3.44,3.44,0,0,0,.69-2.34,3.36,3.36,0,0,0-.68-2.3,2.27,2.27,0,0,0-1.79-.76,2.32,2.32,0,0,0-1.81.77A3.41,3.41,0,0,0,103.82,75.44Z"/><path class="cls-1" d="M115.36,79.94V72.48H112.7V71h7.13v1.52h-2.66v7.46Z"/><path class="cls-1" d="M122.43,79.94V71h1.82V74.5h3.55V71h1.81v9H127.8V76h-3.55v3.93Z"/><path class="cls-1" d="M141.1,79.94h-2l-.78-2h-3.59l-.74,2H132.1l3.49-9h1.92Zm-3.33-3.55-1.24-3.33-1.21,3.33Zm-2.28-5.94.85-1.83h1.92l-1.68,1.83Z"/><path class="cls-1" d="M143.6,79.94V71h3.82a6.29,6.29,0,0,1,2.09.25,2,2,0,0,1,1,.86,2.58,2.58,0,0,1,.39,1.41,2.43,2.43,0,0,1-.59,1.67,2.89,2.89,0,0,1-1.78.83,4,4,0,0,1,1,.75,9.44,9.44,0,0,1,1,1.46l1.1,1.75H149.5l-1.31-2a12.53,12.53,0,0,0-.95-1.31,1.37,1.37,0,0,0-.55-.38,2.87,2.87,0,0,0-.91-.1h-.37v3.75Zm1.81-5.18h1.34a7.11,7.11,0,0,0,1.63-.11,1,1,0,0,0,.51-.38,1.2,1.2,0,0,0,.18-.67,1.1,1.1,0,0,0-.24-.74,1.14,1.14,0,0,0-.68-.35q-.22,0-1.32,0h-1.42Z"/><path class="cls-1" d="M154.18,79.94V71h1.76l3.67,6V71h1.69v9h-1.82l-3.62-5.86v5.86Z"/><path class="cls-1" d="M169.75,79.94V71h1.81v7.38h4.51v1.52Z"/><path class="cls-1" d="M187.27,79.94h-2l-.78-2h-3.59l-.74,2h-1.92l3.49-9h1.92Zm-3.33-3.55-1.24-3.33-1.21,3.33Zm-2.28-5.94.85-1.83h1.92l-1.68,1.83Z"/><path class="cls-1" d="M189.09,77l1.77-.17a2.14,2.14,0,0,0,.64,1.3,1.94,1.94,0,0,0,1.31.41,2,2,0,0,0,1.32-.36,1.11,1.11,0,0,0,.45-.87.79.79,0,0,0-.19-.54,1.45,1.45,0,0,0-.65-.39c-.21-.07-.7-.2-1.45-.39a5,5,0,0,1-2-.89,2.36,2.36,0,0,1-.43-3.09,2.43,2.43,0,0,1,1.12-.91,4.58,4.58,0,0,1,1.76-.31,3.82,3.82,0,0,1,2.55.74,2.64,2.64,0,0,1,.89,2l-1.81.08a1.57,1.57,0,0,0-.5-1,1.84,1.84,0,0,0-1.15-.3,2.11,2.11,0,0,0-1.23.32.67.67,0,0,0-.29.56.7.7,0,0,0,.27.55,4.83,4.83,0,0,0,1.66.6,8.41,8.41,0,0,1,2,.64,2.56,2.56,0,0,1,1,.91,2.69,2.69,0,0,1,.36,1.43,2.64,2.64,0,0,1-1.64,2.45,5,5,0,0,1-1.95.33,3.92,3.92,0,0,1-2.62-.79A3.48,3.48,0,0,1,189.09,77Z"/><path class="cls-1" d="M198.73,79.94V78.3l4.71-5.82h-4.18V71h6.57v1.41l-4.92,6H206v1.52Z"/><path class="cls-1" d="M208.75,79.94V71h1.81v7.38h4.51v1.52Z"/><path class="cls-1" d="M217.22,75.5a5.6,5.6,0,0,1,.41-2.3,4.37,4.37,0,0,1,.83-1.23,3.41,3.41,0,0,1,1.16-.8,4.85,4.85,0,0,1,1.93-.36A4.23,4.23,0,0,1,224.73,72a5.5,5.5,0,0,1,0,6.82,4.71,4.71,0,0,1-6.34,0A4.65,4.65,0,0,1,217.22,75.5Zm1.86-.06a3.34,3.34,0,0,0,.71,2.31,2.25,2.25,0,0,0,1.78.79,2.28,2.28,0,0,0,1.78-.78,3.44,3.44,0,0,0,.7-2.34,3.36,3.36,0,0,0-.68-2.3,2.5,2.5,0,0,0-3.6,0A3.36,3.36,0,0,0,219.08,75.44Zm1.37-5,.85-1.83h1.92l-1.68,1.83Z"/><polygon class="cls-1" points="92.64 20.09 50.63 20.09 50.63 20.11 50.57 20.11 19.5 51.18 19.5 65.23 54.7 30.03 81.95 30.03 81.95 46.28 66.52 61.77 79.68 61.77 92.7 48.45 92.7 20.09 92.64 20.09"/><polygon class="cls-1" points="41.97 70.97 72.97 39.96 58.93 39.96 19.2 79.69 61.13 79.7 69.87 70.97 41.97 70.97"/></svg>